<mxfile host="Electron" modified="2023-12-10T19:51:21.617Z" agent="Mozilla/5.0 (Windows NT 10.0; Win64; x64) AppleWebKit/537.36 (KHTML, like Gecko) draw.io/22.1.2 Chrome/114.0.5735.289 Electron/25.9.4 Safari/537.36" etag="A4PgS8DOrWlIG73CjeZ2" version="22.1.2" type="device">
  <diagram name="Page-1" id="zgY0ZtRXbC9Tr-R6ndSn">
    <mxGraphModel dx="1764" dy="1136" grid="1" gridSize="10" guides="1" tooltips="1" connect="1" arrows="1" fold="1" page="1" pageScale="1" pageWidth="10000" pageHeight="10000" math="0" shadow="0">
      <root>
        <mxCell id="0" />
        <mxCell id="1" parent="0" />
        <mxCell id="EJwshP0ZPpEsLIK-kxUl-6" style="edgeStyle=orthogonalEdgeStyle;rounded=0;sketch=1;hachureGap=4;jiggle=2;curveFitting=1;orthogonalLoop=1;jettySize=auto;html=1;exitX=1;exitY=0.5;exitDx=0;exitDy=0;fontFamily=Architects Daughter;fontSource=https%3A%2F%2Ffonts.googleapis.com%2Fcss%3Ffamily%3DArchitects%2BDaughter;fontSize=16;" edge="1" parent="1" source="EJwshP0ZPpEsLIK-kxUl-1" target="EJwshP0ZPpEsLIK-kxUl-5">
          <mxGeometry relative="1" as="geometry" />
        </mxCell>
        <mxCell id="EJwshP0ZPpEsLIK-kxUl-12" style="edgeStyle=orthogonalEdgeStyle;rounded=0;sketch=1;hachureGap=4;jiggle=2;curveFitting=1;orthogonalLoop=1;jettySize=auto;html=1;exitX=0.5;exitY=1;exitDx=0;exitDy=0;entryX=0.5;entryY=0;entryDx=0;entryDy=0;fontFamily=Architects Daughter;fontSource=https%3A%2F%2Ffonts.googleapis.com%2Fcss%3Ffamily%3DArchitects%2BDaughter;fontSize=16;" edge="1" parent="1" source="EJwshP0ZPpEsLIK-kxUl-1" target="EJwshP0ZPpEsLIK-kxUl-11">
          <mxGeometry relative="1" as="geometry" />
        </mxCell>
        <mxCell id="EJwshP0ZPpEsLIK-kxUl-1" value="Pre-processing" style="rounded=1;whiteSpace=wrap;html=1;sketch=1;hachureGap=4;jiggle=2;curveFitting=1;fontFamily=Architects Daughter;fontSource=https%3A%2F%2Ffonts.googleapis.com%2Fcss%3Ffamily%3DArchitects%2BDaughter;fontSize=20;fillColor=#fad9d5;strokeColor=#ae4132;" vertex="1" parent="1">
          <mxGeometry x="290" y="240" width="170" height="70" as="geometry" />
        </mxCell>
        <mxCell id="EJwshP0ZPpEsLIK-kxUl-3" style="edgeStyle=orthogonalEdgeStyle;rounded=0;sketch=1;hachureGap=4;jiggle=2;curveFitting=1;orthogonalLoop=1;jettySize=auto;html=1;exitX=1;exitY=0.5;exitDx=0;exitDy=0;entryX=0;entryY=0.5;entryDx=0;entryDy=0;fontFamily=Architects Daughter;fontSource=https%3A%2F%2Ffonts.googleapis.com%2Fcss%3Ffamily%3DArchitects%2BDaughter;fontSize=16;" edge="1" parent="1" source="EJwshP0ZPpEsLIK-kxUl-2" target="EJwshP0ZPpEsLIK-kxUl-1">
          <mxGeometry relative="1" as="geometry" />
        </mxCell>
        <mxCell id="EJwshP0ZPpEsLIK-kxUl-2" value="Data" style="text;html=1;strokeColor=none;fillColor=none;align=center;verticalAlign=middle;whiteSpace=wrap;rounded=0;fontSize=20;fontFamily=Architects Daughter;" vertex="1" parent="1">
          <mxGeometry x="170" y="260" width="60" height="30" as="geometry" />
        </mxCell>
        <mxCell id="EJwshP0ZPpEsLIK-kxUl-8" style="edgeStyle=orthogonalEdgeStyle;rounded=0;sketch=1;hachureGap=4;jiggle=2;curveFitting=1;orthogonalLoop=1;jettySize=auto;html=1;exitX=1;exitY=0.5;exitDx=0;exitDy=0;entryX=0;entryY=0.5;entryDx=0;entryDy=0;fontFamily=Architects Daughter;fontSource=https%3A%2F%2Ffonts.googleapis.com%2Fcss%3Ffamily%3DArchitects%2BDaughter;fontSize=16;" edge="1" parent="1" source="EJwshP0ZPpEsLIK-kxUl-5" target="EJwshP0ZPpEsLIK-kxUl-7">
          <mxGeometry relative="1" as="geometry" />
        </mxCell>
        <mxCell id="EJwshP0ZPpEsLIK-kxUl-9" value="Words" style="edgeLabel;html=1;align=center;verticalAlign=middle;resizable=0;points=[];fontSize=20;fontFamily=Architects Daughter;" vertex="1" connectable="0" parent="EJwshP0ZPpEsLIK-kxUl-8">
          <mxGeometry x="-0.1548" y="2" relative="1" as="geometry">
            <mxPoint as="offset" />
          </mxGeometry>
        </mxCell>
        <mxCell id="EJwshP0ZPpEsLIK-kxUl-15" style="edgeStyle=orthogonalEdgeStyle;rounded=0;sketch=1;hachureGap=4;jiggle=2;curveFitting=1;orthogonalLoop=1;jettySize=auto;html=1;exitX=0.5;exitY=0;exitDx=0;exitDy=0;entryX=0.5;entryY=0;entryDx=0;entryDy=0;fontFamily=Architects Daughter;fontSource=https%3A%2F%2Ffonts.googleapis.com%2Fcss%3Ffamily%3DArchitects%2BDaughter;fontSize=16;" edge="1" parent="1" source="EJwshP0ZPpEsLIK-kxUl-5" target="EJwshP0ZPpEsLIK-kxUl-14">
          <mxGeometry relative="1" as="geometry">
            <Array as="points">
              <mxPoint x="635" y="80" />
              <mxPoint x="1385" y="80" />
            </Array>
          </mxGeometry>
        </mxCell>
        <mxCell id="EJwshP0ZPpEsLIK-kxUl-16" value="Chars" style="edgeLabel;html=1;align=center;verticalAlign=middle;resizable=0;points=[];fontSize=20;fontFamily=Architects Daughter;" vertex="1" connectable="0" parent="EJwshP0ZPpEsLIK-kxUl-15">
          <mxGeometry x="0.0058" y="-4" relative="1" as="geometry">
            <mxPoint x="47" y="-4" as="offset" />
          </mxGeometry>
        </mxCell>
        <mxCell id="EJwshP0ZPpEsLIK-kxUl-5" value="Tokenization" style="rounded=1;whiteSpace=wrap;html=1;sketch=1;hachureGap=4;jiggle=2;curveFitting=1;fontFamily=Architects Daughter;fontSource=https%3A%2F%2Ffonts.googleapis.com%2Fcss%3Ffamily%3DArchitects%2BDaughter;fontSize=20;fillColor=#fad9d5;strokeColor=#ae4132;" vertex="1" parent="1">
          <mxGeometry x="550" y="240" width="170" height="70" as="geometry" />
        </mxCell>
        <mxCell id="EJwshP0ZPpEsLIK-kxUl-17" style="edgeStyle=orthogonalEdgeStyle;rounded=0;sketch=1;hachureGap=4;jiggle=2;curveFitting=1;orthogonalLoop=1;jettySize=auto;html=1;exitX=1;exitY=0.5;exitDx=0;exitDy=0;entryX=0;entryY=0.5;entryDx=0;entryDy=0;fontFamily=Architects Daughter;fontSource=https%3A%2F%2Ffonts.googleapis.com%2Fcss%3Ffamily%3DArchitects%2BDaughter;fontSize=16;" edge="1" parent="1" source="EJwshP0ZPpEsLIK-kxUl-7" target="EJwshP0ZPpEsLIK-kxUl-14">
          <mxGeometry relative="1" as="geometry" />
        </mxCell>
        <mxCell id="EJwshP0ZPpEsLIK-kxUl-18" value="H of word&lt;br&gt;Context of word &lt;br&gt;in sentence" style="edgeLabel;html=1;align=center;verticalAlign=middle;resizable=0;points=[];fontSize=20;fontFamily=Architects Daughter;" vertex="1" connectable="0" parent="EJwshP0ZPpEsLIK-kxUl-17">
          <mxGeometry x="-0.0506" y="5" relative="1" as="geometry">
            <mxPoint x="5" y="1" as="offset" />
          </mxGeometry>
        </mxCell>
        <mxCell id="EJwshP0ZPpEsLIK-kxUl-7" value="ML Model" style="rounded=1;whiteSpace=wrap;html=1;sketch=1;hachureGap=4;jiggle=2;curveFitting=1;fontFamily=Architects Daughter;fontSource=https%3A%2F%2Ffonts.googleapis.com%2Fcss%3Ffamily%3DArchitects%2BDaughter;fontSize=20;fillColor=#e1d5e7;strokeColor=#9673a6;" vertex="1" parent="1">
          <mxGeometry x="890" y="240" width="170" height="70" as="geometry" />
        </mxCell>
        <mxCell id="EJwshP0ZPpEsLIK-kxUl-11" value="Gold Output" style="text;html=1;strokeColor=none;fillColor=none;align=center;verticalAlign=middle;whiteSpace=wrap;rounded=0;fontSize=20;fontFamily=Architects Daughter;" vertex="1" parent="1">
          <mxGeometry x="307.5" y="400" width="135" height="30" as="geometry" />
        </mxCell>
        <mxCell id="EJwshP0ZPpEsLIK-kxUl-25" style="edgeStyle=orthogonalEdgeStyle;rounded=0;sketch=1;hachureGap=4;jiggle=2;curveFitting=1;orthogonalLoop=1;jettySize=auto;html=1;exitX=1;exitY=0.5;exitDx=0;exitDy=0;fontFamily=Architects Daughter;fontSource=https%3A%2F%2Ffonts.googleapis.com%2Fcss%3Ffamily%3DArchitects%2BDaughter;fontSize=16;" edge="1" parent="1" source="EJwshP0ZPpEsLIK-kxUl-14">
          <mxGeometry relative="1" as="geometry">
            <mxPoint x="1650" y="155" as="targetPoint" />
          </mxGeometry>
        </mxCell>
        <mxCell id="EJwshP0ZPpEsLIK-kxUl-28" style="edgeStyle=orthogonalEdgeStyle;rounded=0;sketch=1;hachureGap=4;jiggle=2;curveFitting=1;orthogonalLoop=1;jettySize=auto;html=1;exitX=0.5;exitY=1;exitDx=0;exitDy=0;fontFamily=Architects Daughter;fontSource=https%3A%2F%2Ffonts.googleapis.com%2Fcss%3Ffamily%3DArchitects%2BDaughter;fontSize=16;entryX=0.5;entryY=0;entryDx=0;entryDy=0;" edge="1" parent="1" source="EJwshP0ZPpEsLIK-kxUl-14" target="EJwshP0ZPpEsLIK-kxUl-31">
          <mxGeometry relative="1" as="geometry">
            <mxPoint x="1520" y="300" as="targetPoint" />
          </mxGeometry>
        </mxCell>
        <mxCell id="EJwshP0ZPpEsLIK-kxUl-30" value="Context of char &lt;br&gt;in word" style="edgeLabel;html=1;align=center;verticalAlign=middle;resizable=0;points=[];fontSize=20;fontFamily=Architects Daughter;" vertex="1" connectable="0" parent="EJwshP0ZPpEsLIK-kxUl-28">
          <mxGeometry x="-0.0653" y="-1" relative="1" as="geometry">
            <mxPoint as="offset" />
          </mxGeometry>
        </mxCell>
        <mxCell id="EJwshP0ZPpEsLIK-kxUl-14" value="ML Model" style="rounded=1;whiteSpace=wrap;html=1;sketch=1;hachureGap=4;jiggle=2;curveFitting=1;fontFamily=Architects Daughter;fontSource=https%3A%2F%2Ffonts.googleapis.com%2Fcss%3Ffamily%3DArchitects%2BDaughter;fontSize=20;fillColor=#e1d5e7;strokeColor=#9673a6;" vertex="1" parent="1">
          <mxGeometry x="1300" y="120" width="170" height="70" as="geometry" />
        </mxCell>
        <mxCell id="EJwshP0ZPpEsLIK-kxUl-21" style="edgeStyle=orthogonalEdgeStyle;rounded=0;sketch=1;hachureGap=4;jiggle=2;curveFitting=1;orthogonalLoop=1;jettySize=auto;html=1;exitX=0.5;exitY=0;exitDx=0;exitDy=0;entryX=0.5;entryY=1;entryDx=0;entryDy=0;fontFamily=Architects Daughter;fontSource=https%3A%2F%2Ffonts.googleapis.com%2Fcss%3Ffamily%3DArchitects%2BDaughter;fontSize=16;" edge="1" parent="1" source="EJwshP0ZPpEsLIK-kxUl-20" target="EJwshP0ZPpEsLIK-kxUl-7">
          <mxGeometry relative="1" as="geometry" />
        </mxCell>
        <mxCell id="EJwshP0ZPpEsLIK-kxUl-20" value="Features" style="text;html=1;strokeColor=none;fillColor=none;align=center;verticalAlign=middle;whiteSpace=wrap;rounded=0;fontSize=20;fontFamily=Architects Daughter;" vertex="1" parent="1">
          <mxGeometry x="945" y="410" width="60" height="30" as="geometry" />
        </mxCell>
        <mxCell id="EJwshP0ZPpEsLIK-kxUl-22" value="Features" style="text;html=1;strokeColor=none;fillColor=none;align=center;verticalAlign=middle;whiteSpace=wrap;rounded=0;fontSize=20;fontFamily=Architects Daughter;" vertex="1" parent="1">
          <mxGeometry x="1670" y="140" width="60" height="30" as="geometry" />
        </mxCell>
        <mxCell id="EJwshP0ZPpEsLIK-kxUl-31" value="Classifier" style="rounded=1;whiteSpace=wrap;html=1;sketch=1;hachureGap=4;jiggle=2;curveFitting=1;fontFamily=Architects Daughter;fontSource=https%3A%2F%2Ffonts.googleapis.com%2Fcss%3Ffamily%3DArchitects%2BDaughter;fontSize=20;fillColor=#dae8fc;strokeColor=#6c8ebf;" vertex="1" parent="1">
          <mxGeometry x="1700" y="460" width="170" height="70" as="geometry" />
        </mxCell>
        <mxCell id="EJwshP0ZPpEsLIK-kxUl-36" value="&lt;font style=&quot;font-size: 16px;&quot;&gt;word2vec&lt;br&gt;(Normal Embedding)&lt;br&gt;&lt;/font&gt;" style="ellipse;whiteSpace=wrap;html=1;aspect=fixed;sketch=1;hachureGap=4;jiggle=2;curveFitting=1;fontFamily=Architects Daughter;fontSource=https%3A%2F%2Ffonts.googleapis.com%2Fcss%3Ffamily%3DArchitects%2BDaughter;fontSize=20;" vertex="1" parent="1">
          <mxGeometry x="845" y="515" width="175" height="175" as="geometry" />
        </mxCell>
        <mxCell id="EJwshP0ZPpEsLIK-kxUl-46" style="edgeStyle=orthogonalEdgeStyle;rounded=0;sketch=1;hachureGap=4;jiggle=2;curveFitting=1;orthogonalLoop=1;jettySize=auto;html=1;exitX=0.5;exitY=0;exitDx=0;exitDy=0;fontFamily=Architects Daughter;fontSource=https%3A%2F%2Ffonts.googleapis.com%2Fcss%3Ffamily%3DArchitects%2BDaughter;fontSize=20;fontColor=default;" edge="1" parent="1" source="EJwshP0ZPpEsLIK-kxUl-37">
          <mxGeometry relative="1" as="geometry">
            <mxPoint x="990" y="460" as="targetPoint" />
          </mxGeometry>
        </mxCell>
        <mxCell id="EJwshP0ZPpEsLIK-kxUl-37" value="&lt;font style=&quot;font-size: 16px;&quot;&gt;Bag of words&lt;/font&gt;" style="ellipse;whiteSpace=wrap;html=1;aspect=fixed;sketch=1;hachureGap=4;jiggle=2;curveFitting=1;fontFamily=Architects Daughter;fontSource=https%3A%2F%2Ffonts.googleapis.com%2Fcss%3Ffamily%3DArchitects%2BDaughter;fontSize=20;" vertex="1" parent="1">
          <mxGeometry x="1070" y="515" width="175" height="175" as="geometry" />
        </mxCell>
        <mxCell id="EJwshP0ZPpEsLIK-kxUl-44" style="edgeStyle=orthogonalEdgeStyle;rounded=0;sketch=1;hachureGap=4;jiggle=2;curveFitting=1;orthogonalLoop=1;jettySize=auto;html=1;exitX=0.5;exitY=0;exitDx=0;exitDy=0;fontFamily=Architects Daughter;fontSource=https%3A%2F%2Ffonts.googleapis.com%2Fcss%3Ffamily%3DArchitects%2BDaughter;fontSize=20;fontColor=default;" edge="1" parent="1" source="EJwshP0ZPpEsLIK-kxUl-39">
          <mxGeometry relative="1" as="geometry">
            <mxPoint x="930" y="450" as="targetPoint" />
          </mxGeometry>
        </mxCell>
        <mxCell id="EJwshP0ZPpEsLIK-kxUl-39" value="Pre-trained&lt;br&gt;&lt;span style=&quot;color: rgb(0, 0, 0); font-family: &amp;quot;Architects Daughter&amp;quot;; font-size: 16px; font-style: normal; font-variant-ligatures: normal; font-variant-caps: normal; font-weight: 400; letter-spacing: normal; orphans: 2; text-align: center; text-indent: 0px; text-transform: none; widows: 2; word-spacing: 0px; -webkit-text-stroke-width: 0px; background-color: rgb(251, 251, 251); text-decoration-thickness: initial; text-decoration-style: initial; text-decoration-color: initial; float: none; display: inline !important;&quot;&gt;Bert Transformer to get semantic features&lt;br&gt;&lt;/span&gt;(Contextual Embedding)" style="ellipse;whiteSpace=wrap;html=1;sketch=1;hachureGap=4;jiggle=2;curveFitting=1;strokeColor=default;align=center;verticalAlign=middle;fontFamily=Architects Daughter;fontSource=https%3A%2F%2Ffonts.googleapis.com%2Fcss%3Ffamily%3DArchitects%2BDaughter;fontSize=20;fontColor=default;fillColor=default;" vertex="1" parent="1">
          <mxGeometry x="520" y="510" width="290" height="180" as="geometry" />
        </mxCell>
        <mxCell id="EJwshP0ZPpEsLIK-kxUl-47" style="edgeStyle=orthogonalEdgeStyle;rounded=0;sketch=1;hachureGap=4;jiggle=2;curveFitting=1;orthogonalLoop=1;jettySize=auto;html=1;exitX=0.5;exitY=0;exitDx=0;exitDy=0;fontFamily=Architects Daughter;fontSource=https%3A%2F%2Ffonts.googleapis.com%2Fcss%3Ffamily%3DArchitects%2BDaughter;fontSize=20;fontColor=default;" edge="1" parent="1">
          <mxGeometry relative="1" as="geometry">
            <mxPoint x="1367.5" y="540" as="sourcePoint" />
            <mxPoint x="1040" y="430" as="targetPoint" />
            <Array as="points">
              <mxPoint x="1368" y="430" />
            </Array>
          </mxGeometry>
        </mxCell>
        <mxCell id="EJwshP0ZPpEsLIK-kxUl-40" value="&lt;span style=&quot;font-size: 16px;&quot;&gt;TF-IDF&lt;/span&gt;" style="ellipse;whiteSpace=wrap;html=1;aspect=fixed;sketch=1;hachureGap=4;jiggle=2;curveFitting=1;fontFamily=Architects Daughter;fontSource=https%3A%2F%2Ffonts.googleapis.com%2Fcss%3Ffamily%3DArchitects%2BDaughter;fontSize=20;" vertex="1" parent="1">
          <mxGeometry x="1280" y="530" width="175" height="175" as="geometry" />
        </mxCell>
        <mxCell id="EJwshP0ZPpEsLIK-kxUl-54" style="edgeStyle=orthogonalEdgeStyle;rounded=0;sketch=1;hachureGap=4;jiggle=2;curveFitting=1;orthogonalLoop=1;jettySize=auto;html=1;exitX=0.5;exitY=0;exitDx=0;exitDy=0;fontFamily=Architects Daughter;fontSource=https%3A%2F%2Ffonts.googleapis.com%2Fcss%3Ffamily%3DArchitects%2BDaughter;fontSize=20;fontColor=default;" edge="1" parent="1" source="EJwshP0ZPpEsLIK-kxUl-41">
          <mxGeometry relative="1" as="geometry">
            <mxPoint x="920" y="420" as="targetPoint" />
            <Array as="points">
              <mxPoint x="828" y="420" />
            </Array>
          </mxGeometry>
        </mxCell>
        <mxCell id="EJwshP0ZPpEsLIK-kxUl-41" value="&lt;font style=&quot;font-size: 16px;&quot;&gt;POS Tagging&lt;br&gt;&lt;/font&gt;" style="ellipse;whiteSpace=wrap;html=1;aspect=fixed;sketch=1;hachureGap=4;jiggle=2;curveFitting=1;fontFamily=Architects Daughter;fontSource=https%3A%2F%2Ffonts.googleapis.com%2Fcss%3Ffamily%3DArchitects%2BDaughter;fontSize=20;" vertex="1" parent="1">
          <mxGeometry x="740" y="720" width="175" height="175" as="geometry" />
        </mxCell>
        <mxCell id="EJwshP0ZPpEsLIK-kxUl-45" style="edgeStyle=orthogonalEdgeStyle;rounded=0;sketch=1;hachureGap=4;jiggle=2;curveFitting=1;orthogonalLoop=1;jettySize=auto;html=1;exitX=0.5;exitY=0;exitDx=0;exitDy=0;entryX=0.287;entryY=1.413;entryDx=0;entryDy=0;entryPerimeter=0;fontFamily=Architects Daughter;fontSource=https%3A%2F%2Ffonts.googleapis.com%2Fcss%3Ffamily%3DArchitects%2BDaughter;fontSize=20;fontColor=default;" edge="1" parent="1" source="EJwshP0ZPpEsLIK-kxUl-36" target="EJwshP0ZPpEsLIK-kxUl-20">
          <mxGeometry relative="1" as="geometry">
            <Array as="points">
              <mxPoint x="932" y="490" />
              <mxPoint x="962" y="490" />
            </Array>
          </mxGeometry>
        </mxCell>
        <mxCell id="EJwshP0ZPpEsLIK-kxUl-52" style="edgeStyle=orthogonalEdgeStyle;rounded=0;sketch=1;hachureGap=4;jiggle=2;curveFitting=1;orthogonalLoop=1;jettySize=auto;html=1;exitX=0;exitY=0.5;exitDx=0;exitDy=0;entryX=0.5;entryY=0;entryDx=0;entryDy=0;fontFamily=Architects Daughter;fontSource=https%3A%2F%2Ffonts.googleapis.com%2Fcss%3Ffamily%3DArchitects%2BDaughter;fontSize=20;fontColor=default;" edge="1" parent="1" source="EJwshP0ZPpEsLIK-kxUl-49" target="EJwshP0ZPpEsLIK-kxUl-22">
          <mxGeometry relative="1" as="geometry" />
        </mxCell>
        <mxCell id="EJwshP0ZPpEsLIK-kxUl-49" value="position of char in word" style="ellipse;whiteSpace=wrap;html=1;sketch=1;hachureGap=4;jiggle=2;curveFitting=1;strokeColor=default;align=center;verticalAlign=middle;fontFamily=Architects Daughter;fontSource=https%3A%2F%2Ffonts.googleapis.com%2Fcss%3Ffamily%3DArchitects%2BDaughter;fontSize=20;fontColor=default;fillColor=default;" vertex="1" parent="1">
          <mxGeometry x="1850" y="40" width="150" height="100" as="geometry" />
        </mxCell>
        <mxCell id="EJwshP0ZPpEsLIK-kxUl-51" style="edgeStyle=orthogonalEdgeStyle;rounded=0;sketch=1;hachureGap=4;jiggle=2;curveFitting=1;orthogonalLoop=1;jettySize=auto;html=1;exitX=0;exitY=0.5;exitDx=0;exitDy=0;entryX=0.5;entryY=1;entryDx=0;entryDy=0;fontFamily=Architects Daughter;fontSource=https%3A%2F%2Ffonts.googleapis.com%2Fcss%3Ffamily%3DArchitects%2BDaughter;fontSize=20;fontColor=default;" edge="1" parent="1" source="EJwshP0ZPpEsLIK-kxUl-50" target="EJwshP0ZPpEsLIK-kxUl-22">
          <mxGeometry relative="1" as="geometry" />
        </mxCell>
        <mxCell id="EJwshP0ZPpEsLIK-kxUl-50" value="pre-trained bert model for char embedding" style="ellipse;whiteSpace=wrap;html=1;sketch=1;hachureGap=4;jiggle=2;curveFitting=1;strokeColor=default;align=center;verticalAlign=middle;fontFamily=Architects Daughter;fontSource=https%3A%2F%2Ffonts.googleapis.com%2Fcss%3Ffamily%3DArchitects%2BDaughter;fontSize=20;fontColor=default;fillColor=default;" vertex="1" parent="1">
          <mxGeometry x="1790" y="160" width="210" height="130" as="geometry" />
        </mxCell>
        <mxCell id="EJwshP0ZPpEsLIK-kxUl-58" value="Output" style="ellipse;shape=cloud;whiteSpace=wrap;html=1;sketch=1;hachureGap=4;jiggle=2;curveFitting=1;strokeColor=#82b366;align=center;verticalAlign=middle;fontFamily=Architects Daughter;fontSource=https%3A%2F%2Ffonts.googleapis.com%2Fcss%3Ffamily%3DArchitects%2BDaughter;fontSize=20;fillColor=#d5e8d4;" vertex="1" parent="1">
          <mxGeometry x="1710" y="650" width="230" height="190" as="geometry" />
        </mxCell>
        <mxCell id="EJwshP0ZPpEsLIK-kxUl-59" style="edgeStyle=orthogonalEdgeStyle;rounded=0;sketch=1;hachureGap=4;jiggle=2;curveFitting=1;orthogonalLoop=1;jettySize=auto;html=1;exitX=0.5;exitY=1;exitDx=0;exitDy=0;entryX=0.518;entryY=0.074;entryDx=0;entryDy=0;entryPerimeter=0;fontFamily=Architects Daughter;fontSource=https%3A%2F%2Ffonts.googleapis.com%2Fcss%3Ffamily%3DArchitects%2BDaughter;fontSize=20;fontColor=default;" edge="1" parent="1" source="EJwshP0ZPpEsLIK-kxUl-31" target="EJwshP0ZPpEsLIK-kxUl-58">
          <mxGeometry relative="1" as="geometry" />
        </mxCell>
      </root>
    </mxGraphModel>
  </diagram>
</mxfile>
